<?xml version="1.0" standalone="no"?>
<!DOCTYPE svg PUBLIC "-//W3C//DTD SVG 20010904//EN"
 "http://www.w3.org/TR/2001/REC-SVG-20010904/DTD/svg10.dtd">
<svg version="1.0" xmlns="http://www.w3.org/2000/svg"
 width="849.000000pt" height="171.000000pt" viewBox="0 0 849.000000 171.000000"
 preserveAspectRatio="xMidYMid meet">

<g transform="translate(0.000000,171.000000) scale(0.100000,-0.100000)"
fill="#000000" stroke="none">
<path d="M685 1528 c-4 -13 -18 -34 -30 -48 -21 -23 -156 -231 -289 -447 -31
-50 -56 -98 -56 -106 0 -17 179 -189 191 -185 7 3 173 262 356 558 36 58 74
117 84 132 11 15 19 32 19 38 0 5 9 19 20 30 11 11 20 27 20 35 0 13 -24 15
-154 15 -152 0 -155 0 -161 -22z m285 2 c0 -6 -50 -10 -130 -10 -80 0 -130 4
-130 10 0 6 50 10 130 10 80 0 130 -4 130 -10z m-40 -60 c0 -6 -52 -10 -135
-10 -83 0 -135 4 -135 10 0 6 52 10 135 10 83 0 135 -4 135 -10z m-30 -48 c0
-26 -30 -32 -152 -32 -70 0 -128 4 -128 8 0 26 30 32 152 32 70 0 128 -4 128
-8z m-42 -69 c-3 -16 -19 -18 -142 -21 -108 -2 -137 0 -134 10 3 9 40 15 124
18 65 4 127 7 137 8 13 1 17 -4 15 -15z m-38 -49 c0 -3 -4 -13 -10 -23 -8 -16
-22 -18 -137 -13 -70 2 -130 6 -132 8 -2 2 2 10 9 19 10 12 38 15 141 15 71 0
129 -3 129 -6z m-42 -76 c-8 -13 -70 -113 -138 -223 -68 -110 -129 -206 -136
-214 -11 -12 -25 -3 -91 59 -43 41 -80 78 -81 82 -2 4 40 78 94 163 l97 155
135 0 134 0 -14 -22z"/>
<path d="M1062 1525 c-7 -14 -17 -31 -22 -38 -12 -14 -292 -458 -334 -530 -19
-31 -25 -52 -19 -58 5 -5 71 -8 154 -7 l144 3 75 121 c41 67 104 169 140 228
l64 105 179 3 c98 2 180 1 182 -2 13 -22 -25 -29 -182 -35 -140 -6 -175 -11
-186 -24 -31 -36 -87 -140 -87 -161 0 -15 35 -61 101 -131 l101 -109 672 0
671 1 175 281 c96 155 177 289 179 297 2 9 9 20 16 26 8 5 15 19 17 30 3 20
-3 20 -488 23 l-491 2 -11 -25 c-7 -14 -17 -31 -22 -38 -6 -7 -87 -133 -179
-280 -93 -148 -173 -273 -177 -277 -8 -7 -155 151 -154 165 0 3 51 8 112 11
62 3 114 8 116 12 1 4 49 83 107 176 58 92 105 173 105 178 0 6 6 16 14 22 8
6 16 20 18 31 3 20 -3 20 -488 23 l-491 2 -11 -25z m958 5 c0 -14 -926 -14
-935 0 -4 7 153 10 464 10 307 0 471 -3 471 -10z m1050 0 c0 -7 -161 -10 -464
-10 -299 0 -467 4 -471 10 -4 7 153 10 464 10 307 0 471 -3 471 -10z m-1082
-62 c-4 -10 -110 -14 -476 -16 -260 -1 -472 2 -472 6 0 5 3 12 7 15 3 4 217 7
476 7 370 0 468 -3 465 -12z m1050 0 c-4 -10 -110 -14 -476 -16 -260 -1 -472
2 -472 6 0 5 3 12 7 15 3 4 217 7 476 7 370 0 468 -3 465 -12z m-1088 -63 c0
-13 -59 -15 -475 -15 -430 0 -510 4 -462 23 6 3 220 6 475 6 404 1 462 -1 462
-14z m1050 0 c0 -13 -59 -15 -475 -15 -430 0 -510 4 -462 23 6 3 220 6 475 6
404 1 462 -1 462 -14z m-1772 -67 c-14 -22 -20 -22 -139 -19 -68 1 -125 4
-127 5 -1 2 0 11 4 20 5 14 25 16 141 16 l135 0 -14 -22z m692 13 c0 -26 -34
-33 -152 -32 -67 1 -124 3 -125 5 -2 2 -1 11 3 20 5 14 25 16 140 16 74 0 134
-4 134 -9z m358 -12 c-13 -20 -21 -21 -138 -20 -68 1 -126 3 -127 5 -2 2 -1
11 3 20 5 14 25 16 141 16 l135 0 -14 -21z m392 -7 c-5 -9 -40 -66 -78 -127
l-68 -110 -177 -3 c-115 -1 -177 1 -177 8 0 5 19 40 43 77 24 38 56 92 73 120
l29 53 175 2 c96 2 178 2 183 0 4 -2 3 -11 -3 -20z m300 19 c0 -26 -34 -33
-152 -32 -67 1 -124 3 -125 5 -2 2 -1 11 3 20 5 14 25 16 140 16 74 0 134 -4
134 -9z m-1770 -58 c0 -5 -7 -16 -14 -25 -11 -16 -31 -18 -140 -18 -128 0
-146 6 -114 38 13 13 268 18 268 5z m680 0 c0 -5 -7 -16 -14 -25 -12 -16 -39
-18 -308 -18 -162 0 -298 3 -301 6 -3 4 -2 15 4 25 9 18 27 19 314 19 168 0
305 -3 305 -7z m370 0 c0 -5 -7 -16 -14 -25 -11 -16 -31 -18 -140 -18 -128 0
-146 6 -114 38 13 13 268 18 268 5z m680 0 c0 -5 -7 -16 -14 -25 -11 -16 -31
-18 -140 -18 -69 0 -126 3 -126 6 0 3 5 14 10 25 10 17 22 19 140 19 72 0 130
-3 130 -7z m-1770 -60 c0 -5 -42 -75 -94 -158 l-93 -150 -132 -3 c-136 -3
-148 1 -118 37 8 9 51 76 97 149 l82 132 129 0 c71 0 129 -3 129 -7z m680 0
c0 -3 -11 -26 -25 -50 l-26 -43 -97 -1 c-53 0 -114 -3 -135 -7 l-38 -7 86 -96
c47 -54 85 -100 85 -103 0 -3 -70 -6 -156 -6 l-156 0 -67 73 c-37 39 -82 89
-100 110 l-33 37 32 50 32 50 299 0 c164 0 299 -3 299 -7z m370 0 c0 -5 -20
-39 -45 -78 l-44 -70 102 -6 c56 -3 149 -4 207 -1 l105 5 49 78 49 79 128 0
c71 0 129 -3 129 -7 0 -5 -42 -75 -93 -158 l-93 -150 -472 -3 c-489 -2 -492
-2 -459 37 8 9 51 76 97 149 l82 132 129 0 c71 0 129 -3 129 -7z"/>
<path d="M3173 1538 c-4 -7 -12 -21 -18 -30 -5 -9 -90 -143 -187 -297 -98
-154 -178 -289 -178 -301 0 -20 5 -20 234 -20 l235 0 142 85 c78 47 147 85
153 85 7 0 48 -42 92 -93 l81 -92 -17 -25 c-80 -113 -370 -598 -370 -618 l0
-25 433 8 c490 8 474 6 568 94 48 45 253 361 265 409 4 12 3 43 -1 67 -11 79
-14 79 -352 85 l-293 5 46 75 c25 41 56 91 69 110 50 78 231 371 247 401 9 17
22 37 27 42 6 6 11 19 11 29 0 17 -12 18 -150 18 -147 0 -151 -1 -160 -22 -5
-13 -39 -68 -75 -123 -36 -55 -74 -117 -85 -137 -36 -67 -35 -68 -165 92 -30
36 -76 89 -104 119 -28 30 -51 58 -51 63 0 14 -388 10 -397 -4z m377 -8 c0 -6
-67 -10 -180 -10 -113 0 -180 4 -180 10 0 6 67 10 180 10 113 0 180 -4 180
-10z m780 0 c0 -6 -48 -10 -124 -10 -73 0 -127 4 -131 10 -4 6 40 10 124 10
81 0 131 -4 131 -10z m-722 -67 c3 -10 -48 -13 -232 -13 -216 0 -249 3 -229
24 4 3 108 5 232 4 169 -2 225 -6 229 -15z m690 5 c-5 -15 -268 -24 -268 -10
0 19 19 22 143 22 98 0 128 -3 125 -12z m-638 -63 c11 -13 -20 -15 -274 -15
-257 0 -318 5 -273 23 6 3 130 6 273 6 221 1 263 -1 274 -14z m598 3 c-5 -15
-268 -24 -268 -10 0 19 19 22 143 22 98 0 128 -3 125 -12z m-548 -63 c7 -9 11
-17 9 -20 -3 -2 -82 -5 -177 -5 -122 -1 -177 2 -187 10 -12 10 -18 10 -30 0
-10 -8 -52 -12 -137 -11 -67 1 -124 4 -127 6 -2 3 2 11 9 20 19 23 621 23 640
0z m506 -6 c-14 -20 -23 -21 -137 -20 -68 1 -125 3 -126 5 -2 2 -1 11 3 20 5
14 25 16 141 16 l134 0 -15 -21z m-916 -45 c0 -3 -5 -14 -10 -25 -10 -17 -22
-19 -140 -19 -72 0 -130 3 -130 6 0 3 5 14 10 25 10 17 22 19 140 19 72 0 130
-3 130 -6z m192 -156 l40 -48 -156 0 c-95 0 -156 4 -156 10 0 5 15 33 34 62
18 29 46 73 61 98 l28 44 55 -59 c29 -33 72 -81 94 -107z m270 145 c10 -9 18
-20 18 -25 0 -4 -80 -8 -177 -8 -150 0 -179 2 -195 17 -10 9 -18 20 -18 25 0
4 80 8 177 8 150 0 179 -2 195 -17z m418 4 c0 -31 -24 -37 -147 -37 -125 0
-143 6 -111 38 18 18 258 17 258 -1z m-920 -55 c0 -5 -20 -40 -45 -78 l-44
-69 77 -6 c42 -3 114 -3 160 -1 53 3 82 1 82 -5 0 -6 -54 -43 -120 -82 l-121
-71 -220 0 c-125 0 -219 4 -217 9 2 5 46 77 98 160 l95 151 128 0 c70 0 127
-4 127 -8z m563 -19 l28 -28 21 28 20 27 130 0 c71 0 128 -4 126 -8 -1 -5 -52
-88 -113 -185 l-109 -177 -82 0 -81 0 -130 148 c-154 174 -183 208 -183 216 0
3 77 6 172 6 l172 0 29 -27z m430 -556 c-106 -172 -138 -219 -147 -223 -24 -8
-336 -9 -336 -1 0 7 61 111 126 215 14 21 19 22 190 22 140 0 173 -3 167 -13z"/>
<path d="M4859 1528 c-5 -13 -20 -37 -32 -54 -12 -17 -34 -51 -48 -75 -15 -24
-64 -102 -109 -174 -149 -235 -191 -307 -186 -321 4 -11 37 -14 153 -14 l148
1 70 117 70 117 342 3 342 2 47 73 c75 115 104 103 -275 113 -249 7 -329 12
-323 21 5 8 106 14 355 19 l347 7 30 47 c16 26 30 52 30 58 0 7 9 21 20 32 11
11 20 27 20 35 0 13 -62 15 -495 15 l-495 0 -11 -22z m966 2 c-4 -6 -172 -10
-470 -10 -298 0 -466 4 -470 10 -4 7 155 10 470 10 315 0 474 -3 470 -10z
m-35 -65 c0 -13 -59 -15 -475 -15 -261 0 -475 4 -475 8 0 5 3 12 7 15 3 4 217
7 475 7 409 0 468 -2 468 -15z m-32 -57 c-4 -10 -111 -14 -481 -16 -433 -2
-513 2 -464 21 6 3 223 6 480 6 371 1 468 -2 465 -11z m-728 -68 c-10 -18 -21
-20 -146 -20 -132 0 -134 0 -124 20 10 18 21 20 146 20 132 0 134 0 124 -20z
m650 -47 c0 -5 -7 -16 -14 -25 -12 -17 -47 -18 -480 -18 -376 0 -466 3 -466
13 0 36 15 37 492 37 257 0 468 -3 468 -7z m-40 -57 c0 -3 -9 -21 -21 -40
l-21 -36 -256 -1 c-142 -1 -297 -4 -346 -8 l-89 -6 -69 -112 -70 -113 -129 0
c-78 0 -129 4 -129 10 0 5 43 77 96 160 l96 150 469 0 c258 0 469 -2 469 -4z"/>
<path d="M5889 1494 c-19 -30 -44 -70 -55 -88 -37 -57 -259 -409 -282 -447
-41 -68 -40 -69 127 -69 l150 0 19 28 c34 48 334 535 340 551 3 9 14 27 24 40
10 13 15 27 12 32 -3 5 -72 9 -153 9 l-148 0 -34 -56z m301 36 c0 -6 -50 -10
-130 -10 -80 0 -130 4 -130 10 0 6 50 10 130 10 80 0 130 -4 130 -10z m-32
-62 c-6 -16 -278 -24 -278 -9 0 16 22 19 153 20 99 1 128 -2 125 -11z m-38
-63 c0 -13 -22 -15 -141 -15 -125 0 -140 2 -129 15 10 12 39 15 141 15 108 0
129 -2 129 -15z m-42 -67 c-9 -13 -18 -22 -22 -20 -3 1 -62 2 -131 2 -123 0
-125 0 -115 20 10 18 21 20 147 20 l135 0 -14 -22z m-28 -45 c0 -5 -7 -16 -14
-25 -11 -16 -31 -18 -145 -18 -72 0 -131 3 -131 7 0 3 7 15 17 25 14 16 33 18
145 18 70 0 128 -3 128 -7z m-40 -60 c0 -5 -42 -75 -94 -158 l-93 -150 -132
-3 c-88 -2 -131 1 -131 8 0 9 29 57 157 258 l34 52 129 0 c72 0 130 -3 130 -7z"/>
<path d="M6292 1538 c-7 -7 -12 -16 -12 -20 0 -5 -9 -21 -19 -36 -40 -57 -171
-262 -185 -291 -34 -64 -50 -61 320 -61 314 0 335 -1 332 -17 -3 -17 -31 -18
-360 -23 l-357 -5 -51 -80 c-27 -43 -50 -87 -50 -97 0 -17 26 -18 503 -18
l502 1 90 146 c50 80 105 169 123 197 17 28 32 56 32 62 0 8 -92 14 -340 19
-246 5 -340 11 -337 19 2 8 114 14 367 21 l362 10 33 63 c18 35 37 68 44 75 6
6 11 19 11 29 0 17 -25 18 -498 18 -374 0 -501 -3 -510 -12z m978 -8 c0 -7
-167 -10 -480 -10 -313 0 -480 3 -480 10 0 7 167 10 480 10 313 0 480 -3 480
-10z m-32 -62 c-4 -10 -113 -14 -491 -16 -268 -1 -487 2 -487 6 0 5 3 12 7 15
3 4 224 7 491 7 382 0 483 -3 480 -12z m-38 -63 c0 -13 -61 -15 -491 -15 -436
0 -490 2 -479 15 11 13 78 15 491 15 419 0 479 -2 479 -15z m-744 -61 c-3 -9
-6 -18 -6 -20 0 -2 -61 -4 -135 -4 -74 0 -135 4 -135 8 0 26 30 32 153 32 114
0 128 -2 123 -16z m667 -50 c3 -3 1 -15 -6 -25 -11 -18 -32 -19 -494 -19 -266
0 -483 3 -483 7 0 3 7 15 17 25 15 17 44 18 488 18 259 0 474 -3 478 -6z m-36
-66 c-2 -7 -29 -52 -58 -99 -30 -48 -71 -114 -92 -148 l-37 -61 -485 0 c-267
0 -485 2 -485 5 0 2 20 36 45 75 l46 70 158 0 c87 0 246 3 354 7 l197 6 20 34
c11 19 20 36 20 39 0 2 -155 4 -345 4 -190 0 -345 3 -345 7 0 3 11 21 26 40
l25 33 481 0 c380 0 479 -3 475 -12z"/>
<path d="M7369 1520 c-6 -16 -14 -30 -18 -30 -12 0 -61 -81 -61 -101 0 -17 9
-19 103 -21 144 -2 144 -2 153 -10 4 -5 0 -16 -8 -25 -37 -43 -318 -505 -318
-523 0 -18 7 -20 68 -19 54 0 85 7 162 39 52 21 96 37 98 35 1 -1 -27 -50 -64
-109 l-66 -106 -184 0 c-101 0 -184 3 -184 6 0 4 25 46 56 95 33 52 54 95 50
104 -4 12 -30 15 -150 15 l-145 0 -120 -197 c-67 -109 -121 -205 -121 -215 0
-16 17 -18 197 -20 134 -2 198 -7 200 -14 3 -8 -46 -14 -157 -19 l-161 -7 20
-31 c10 -18 79 -85 153 -149 l133 -117 70 0 70 0 100 166 100 166 40 2 c22 0
83 2 135 3 l95 3 58 97 c31 53 84 141 117 194 88 143 91 138 -87 138 l-148 1
145 60 c180 74 300 130 300 139 0 13 -61 20 -176 20 -63 0 -114 2 -114 4 0 2
37 64 83 138 l83 133 40 0 c21 1 111 2 199 3 l160 2 30 57 c17 31 38 65 48 75
9 10 17 25 17 33 0 13 -62 15 -496 15 l-495 0 -10 -30z m971 10 c0 -7 -163
-10 -469 -10 -303 0 -472 4 -476 10 -4 7 155 10 469 10 311 0 476 -3 476 -10z
m-40 -60 c0 -7 -165 -10 -475 -10 -310 0 -475 3 -475 10 0 7 165 10 475 10
310 0 475 -3 475 -10z m-32 -52 c-4 -10 -64 -15 -234 -20 -246 -7 -724 0 -724
12 0 4 3 10 7 13 3 4 220 7 481 7 374 0 473 -3 470 -12z m-435 -55 c4 -3 2
-12 -4 -20 -16 -18 -273 -19 -267 0 3 8 41 14 124 17 65 4 124 7 130 8 6 1 14
-1 17 -5z m-33 -62 c0 -5 -7 -15 -17 -22 -12 -11 -45 -13 -137 -10 -67 1 -123
5 -125 7 -2 2 2 10 9 19 10 12 38 15 141 15 71 0 129 -4 129 -9z m-40 -58 c0
-5 -22 -42 -49 -84 l-49 -76 60 -6 c33 -3 94 -3 135 0 59 5 75 3 71 -7 -2 -6
-130 -64 -283 -128 -233 -96 -291 -116 -344 -120 -38 -3 -62 -1 -60 5 2 5 62
103 133 216 l129 207 128 0 c71 0 129 -3 129 -7z"/>
<path d="M1230 852 c-156 -83 -921 -489 -1020 -543 -69 -37 -125 -73 -125 -81
0 -10 39 -14 184 -16 l183 -2 162 89 c88 49 167 91 175 93 8 2 26 -26 48 -77
18 -43 39 -85 45 -92 8 -10 55 -13 192 -13 l181 0 193 310 c105 171 192 319
192 330 0 19 -7 20 -188 20 -162 0 -192 -2 -222 -18z m-115 -347 c-24 -38 -49
-71 -55 -75 -15 -10 -200 -13 -200 -3 1 11 294 162 298 154 1 -4 -18 -38 -43
-76z"/>
<path d="M1703 858 c-6 -7 -88 -139 -183 -293 -95 -154 -179 -290 -187 -303
-32 -52 -33 -52 359 -52 l363 0 55 26 c124 57 270 147 270 166 0 17 -15 18
-237 20 -351 3 -388 4 -386 12 2 6 88 148 128 211 12 19 29 21 331 30 l318 10
63 75 c35 41 63 83 63 93 0 16 -29 17 -474 17 -367 0 -476 -3 -483 -12z"/>
<path d="M2687 833 c-251 -400 -361 -582 -361 -598 -1 -19 6 -20 146 -23 l146
-3 64 102 c34 56 67 103 73 105 6 3 84 3 172 2 l162 -3 -49 -77 c-82 -129 -82
-128 95 -128 127 0 146 2 155 18 6 9 91 147 190 307 99 159 180 300 180 312
l0 23 -475 0 -475 0 -23 -37z m551 -175 c-4 -10 -50 -14 -176 -16 -149 -2
-172 0 -172 13 0 13 25 15 176 15 136 0 175 -3 172 -12z m-110 -45 c-43 -2
-113 -2 -155 0 -43 1 -8 3 77 3 85 0 120 -2 78 -3z"/>
<path d="M4736 833 c-38 -60 -254 -409 -313 -507 -30 -49 -52 -95 -49 -102 4
-12 76 -14 407 -14 l402 0 133 70 c155 80 194 107 187 126 -4 11 -70 14 -349
16 -219 2 -345 7 -347 13 -1 6 117 11 335 13 l338 2 50 75 c81 121 102 111
-265 120 -173 4 -315 11 -315 15 0 7 381 20 594 20 l111 0 55 67 c30 36 61 72
67 79 7 7 10 20 7 28 -5 14 -61 16 -515 16 l-509 0 -24 -37z"/>
<path d="M5784 802 c-23 -37 -80 -130 -129 -207 -48 -77 -116 -186 -151 -242
-92 -148 -95 -143 84 -143 l147 0 25 40 c14 22 27 40 31 40 3 0 10 -17 15 -37
l9 -38 115 -3 c113 -3 117 -2 140 23 30 32 50 32 50 0 l0 -26 147 3 146 3 194
310 c106 171 193 318 193 328 0 15 -13 17 -143 17 l-142 0 -202 -179 c-111
-99 -204 -177 -207 -173 -3 3 -6 83 -6 179 l0 173 -137 0 -138 -1 -41 -67z"/>
</g>
</svg>
